<svg xmlns="http://www.w3.org/2000/svg" width="221" height="204" viewBox="0 0 221 204" fill="none">
  <path d="M168.96 182.615C168.96 182.615 181.679 195.983 191.193 193.198C199.182 190.85 195.871 173.768 195.625 170.842C195.625 170.684 195.801 170.597 195.923 170.702C198.481 173.382 209.554 189.729 216.317 185.682C227.354 179.076 205.086 120.506 176.949 103.967C165.578 97.2922 153.297 96.0657 153.297 96.0657L67.9734 96.0132C67.9734 96.0132 55.604 97.2746 44.251 103.967C16.1135 120.506 -6.15456 179.076 4.88316 185.682C11.6459 189.729 22.7012 173.382 25.2767 170.702C25.3818 170.579 25.5745 170.667 25.5745 170.842C25.3467 173.768 22.0178 190.85 30.007 193.198C39.5205 196.001 52.2402 182.615 52.2402 182.615C52.2402 182.615 47.1594 192.882 52.6257 196.912C58.092 200.942 68.5515 187.521 68.5515 187.521C68.5515 187.521 64.7496 199.137 71.6876 201.467C78.6256 203.797 84.5825 195.983 84.5825 195.983C84.5825 195.983 98.4409 199.417 111.844 199.312C125.247 199.207 135.952 195.23 135.952 195.23C135.952 195.23 142.557 203.289 149.547 201.064C154.944 199.365 153.262 189.781 152.859 187.696C152.841 187.591 152.964 187.539 153.016 187.626C154.506 189.606 162.67 199.995 167.733 196.894C174.496 192.725 168.522 175.187 156.836 165.113C149.635 158.911 134.743 156.948 134.743 156.948" fill="white"/>
  <path d="M67.9734 96.0303C67.9734 96.0303 55.604 97.2917 44.251 103.984C16.1135 120.523 -6.15456 179.093 4.88316 185.699C11.6459 189.746 22.7012 173.399 25.2767 170.719C25.3818 170.596 25.5745 170.684 25.5745 170.859C25.3467 173.785 22.0178 190.867 30.007 193.215C39.5205 196.018 52.2402 182.633 52.2402 182.633" stroke="#442A1B" stroke-width="3.50404" stroke-miterlimit="10" stroke-linecap="round"/>
  <path d="M86.4572 156.966C86.4572 156.966 71.5651 158.928 64.3643 165.13C52.6783 175.187 46.7039 192.742 53.4667 196.912C58.5125 200.031 66.677 189.624 68.1837 187.644C68.2363 187.556 68.3588 187.609 68.3413 187.714C67.9384 189.799 66.2564 199.365 71.6527 201.082C78.6432 203.289 85.2483 195.248 85.2483 195.248" stroke="#442A1B" stroke-width="3.50404" stroke-miterlimit="10" stroke-linecap="round"/>
  <path d="M153.296 96.0833C153.296 96.0833 165.578 97.2922 176.949 103.985C205.086 120.524 227.354 179.094 216.316 185.699C209.554 189.746 198.498 173.4 195.923 170.719C195.818 170.597 195.625 170.684 195.625 170.859C195.853 173.785 199.182 190.868 191.192 193.215C181.679 196.018 168.959 182.633 168.959 182.633" stroke="#442A1B" stroke-width="3.50404" stroke-miterlimit="10" stroke-linecap="round"/>
  <path d="M134.726 156.966C134.726 156.966 149.618 158.928 156.819 165.13C168.504 175.187 174.479 192.742 167.716 196.912C162.67 200.031 154.506 189.624 152.999 187.644C152.947 187.556 152.824 187.609 152.842 187.714C153.244 189.799 154.926 199.365 149.53 201.082C142.54 203.289 135.934 195.248 135.934 195.248" stroke="#442A1B" stroke-width="3.50404" stroke-miterlimit="10" stroke-linecap="round"/>
  <path d="M105.747 173.54C105.747 173.54 104.258 186.925 112.457 186.89C121.182 186.855 119.062 173.54 119.062 173.54" fill="#F797BC"/>
  <path d="M105.747 173.54C105.747 173.54 104.258 186.925 112.457 186.89C121.182 186.855 119.062 173.54 119.062 173.54" stroke="#442A1B" stroke-width="3.50404" stroke-miterlimit="10"/>
  <path d="M122.11 160.348C122.11 165.044 117.503 167.339 111.826 167.339C106.15 167.339 101.542 164.746 101.542 160.348C101.542 155.197 106.15 153.358 111.826 153.358C117.503 153.358 122.11 155.355 122.11 160.348Z" fill="#442A1B"/>
  <path d="M112.317 174.329C112.423 176.098 112.528 180.654 112.528 180.654" stroke="#C74478" stroke-width="1.75202" stroke-miterlimit="10" stroke-linecap="round"/>
  <path d="M112.037 167.04C112.037 167.04 112.054 172.576 112.159 174.311" stroke="#442A1B" stroke-width="3.50404" stroke-miterlimit="10" stroke-linecap="round"/>
  <path d="M155.126 160.119C163.945 159.059 170.072 149.688 168.81 139.188C167.549 128.687 159.377 121.034 150.558 122.093C141.738 123.152 135.611 132.524 136.873 143.024C138.134 153.525 146.306 161.178 155.126 160.119Z" fill="#442A1B"/>
  <path d="M154.173 124.607C154.173 124.607 132.062 119.631 131.624 140.462C131.169 163.204 154.313 158.263 154.313 158.263" stroke="#442A1B" stroke-width="3.95956" stroke-miterlimit="10" stroke-linecap="round"/>
  <path d="M85.7676 141.748C86.1976 131.18 79.3512 122.321 70.4759 121.96C61.6006 121.599 54.0571 129.872 53.6272 140.44C53.1972 151.007 60.0435 159.866 68.9189 160.227C77.7942 160.588 85.3376 152.315 85.7676 141.748Z" fill="#442A1B"/>
  <path d="M67.1147 124.747C67.1147 124.747 88.7697 118.055 90.837 138.781C93.0971 161.417 69.6201 158.316 69.6201 158.316" stroke="#442A1B" stroke-width="3.95956" stroke-miterlimit="10" stroke-linecap="round"/>
  <path d="M68.4116 76.3914C68.4116 76.3914 66.9749 96.2067 69.0598 102.479C69.7081 104.424 87.4911 106.246 112.668 105.212C139.929 104.091 151.282 103.39 152.123 101.06C154.243 95.2081 152.246 75.0949 152.246 75.0949C152.246 75.0949 173.077 70.382 175.267 51.8982C176.914 38.0572 162.635 30.436 162.635 30.436C162.635 30.436 156.924 5.76754 140.577 2.52631C117.836 -1.9939 103.855 23.8834 89.2956 31.2069C78.4681 36.6556 47.9304 24.9872 41.2903 52.1084C34.8078 78.5814 68.4116 76.3739 68.4116 76.3739V76.3914Z" fill="#ECE1C7" stroke="#442A1B" stroke-width="3.50404" stroke-miterlimit="10" stroke-linecap="round"/>
  <path d="M68.4119 76.3912C68.4119 76.3912 100.369 65.371 122.006 63.6541C146.534 61.7093 152.263 75.0948 152.263 75.0948" stroke="#442A1B" stroke-width="3.50404" stroke-miterlimit="10" stroke-linecap="round"/>
  <path d="M131.239 63.6725C131.239 63.6725 138.23 57.8207 140.823 35.8855" stroke="#442A1B" stroke-width="1.75202" stroke-miterlimit="10" stroke-linecap="round"/>
  <path d="M84.9858 71.2577C84.9858 71.2577 78.5034 65.4585 74.8767 59.3615" stroke="#442A1B" stroke-width="1.75202" stroke-miterlimit="10" stroke-linecap="round"/>
  <path d="M147.2 67.5785C147.2 67.5785 149.933 63.4787 151.51 58.4855" stroke="#442A1B" stroke-width="1.75202" stroke-miterlimit="10" stroke-linecap="round"/>
  <path d="M100 171.525C100 171.525 106.325 174.258 112.177 174.31C118.028 174.363 124.756 171.367 124.756 171.367" stroke="#442A1B" stroke-width="3.50404" stroke-miterlimit="10" stroke-linecap="round"/>
</svg>